<?xml version="1.0" standalone="no"?>
<!DOCTYPE svg PUBLIC "-//W3C//DTD SVG 20010904//EN"
 "http://www.w3.org/TR/2001/REC-SVG-20010904/DTD/svg10.dtd">
<svg version="1.0" xmlns="http://www.w3.org/2000/svg"
 width="108.000000pt" height="108.000000pt" viewBox="0 0 108.000000 108.000000"
 preserveAspectRatio="xMidYMid meet">
<metadata>
Created by potrace 1.14, written by Peter Selinger 2001-2017
</metadata>
<g transform="translate(0.000000,108.000000) scale(0.100000,-0.100000)"
fill="#000000" stroke="none">
<path d="M390 1056 c-36 -7 -76 -16 -90 -21 -26 -8 -92 -54 -98 -67 -2 -5 -8
-8 -13 -8 -19 0 -70 -45 -86 -75 -32 -61 -45 -180 -33 -302 8 -80 45 -167 96
-223 41 -46 61 -86 69 -140 4 -25 9 -48 11 -52 3 -5 -2 -15 -10 -24 -9 -8 -20
-32 -26 -53 -5 -21 -22 -50 -36 -65 l-27 -26 442 0 c242 0 441 4 441 8 0 8
-88 67 -101 67 -4 0 -11 3 -15 8 -4 4 -16 7 -26 7 -18 0 -26 25 -10 32 16 7
62 98 62 123 0 15 12 61 27 103 33 96 33 158 0 215 -15 27 -23 54 -21 76 3 34
-34 133 -55 145 -6 4 -11 14 -11 23 0 26 -48 112 -77 138 -15 13 -68 45 -118
69 -75 38 -102 46 -160 50 -38 2 -99 -2 -135 -8z"/>
</g>
</svg>
